<?xml version="1.0" standalone="no"?>
<!DOCTYPE svg PUBLIC "-//W3C//DTD SVG 20010904//EN"
 "http://www.w3.org/TR/2001/REC-SVG-20010904/DTD/svg10.dtd">
<svg version="1.0" xmlns="http://www.w3.org/2000/svg"
 width="200.000000pt" height="200.000000pt" viewBox="0 0 200.000000 200.000000"
 preserveAspectRatio="xMidYMid meet">

<g transform="translate(0.000000,200.000000) scale(0.100000,-0.100000)"
fill="#000000" stroke="none">
<path d="M836 1885 c-288 -60 -515 -233 -641 -488 -70 -143 -89 -224 -89 -397
0 -173 19 -254 89 -397 114 -231 329 -407 580 -475 115 -31 336 -30 450 1 317
86 560 329 646 646 18 65 22 107 22 225 0 118 -4 160 -22 225 -86 316 -334
565 -646 646 -104 27 -293 34 -389 14z m296 -199 c138 -27 247 -84 352 -184
280 -271 288 -705 18 -986 -167 -173 -399 -247 -634 -202 -96 19 -166 47 -247
100 -326 214 -418 643 -207 965 159 241 438 361 718 307z"/>
<path d="M805 1090 l-190 -190 70 -70 70 -70 120 120 120 120 122 -122 123
-123 72 73 73 72 -190 190 c-104 104 -192 190 -195 190 -3 0 -91 -86 -195
-190z"/>
</g>
</svg>
